<svg xmlns="http://www.w3.org/2000/svg" xmlns:xlink="http://www.w3.org/1999/xlink" width="1920" zoomAndPan="magnify" viewBox="0 0 1440 809.999993" height="1080" preserveAspectRatio="xMidYMid meet" version="1.0"><defs><clipPath id="6335b48906"><path d="M 580 243 L 887.589844 243 L 887.589844 551 L 580 551 Z M 580 243 " clip-rule="nonzero"/></clipPath><clipPath id="81f5c82fa5"><path d="M 552.339844 252 L 867 252 L 867 567 L 552.339844 567 Z M 552.339844 252 " clip-rule="nonzero"/></clipPath></defs><rect x="-144" width="1728" fill="#ffffff" y="-80.999999" height="971.999992" fill-opacity="1"/><rect x="-144" width="1728" fill="#ffffff" y="-80.999999" height="971.999992" fill-opacity="1"/><rect x="-144" width="1728" fill="#ffffff" y="-80.999999" height="971.999992" fill-opacity="1"/><g clip-path="url(#6335b48906)"><path fill="#ffcc00" d="M 733.910156 243.023438 C 818.734375 243.023438 887.589844 311.796875 887.589844 396.730469 C 887.589844 481.574219 818.734375 550.441406 733.910156 550.441406 C 648.988281 550.441406 580.132812 481.574219 580.132812 396.730469 C 580.132812 311.796875 648.988281 243.023438 733.910156 243.023438 Z M 713.039062 422.414062 C 701.109375 407.691406 683.023438 383.359375 668.996094 392.878906 C 660.058594 398.941406 655.816406 405.859375 659.570312 413.566406 C 663.515625 421.644531 699.011719 456.378906 708.042969 461.464844 C 720.351562 468.386719 728.820312 459.730469 736.507812 444.820312 C 754.589844 409.902344 777.292969 363.925781 829.507812 329.492188 C 810.5625 332.953125 773.816406 358.257812 764.109375 366.429688 C 740.0625 386.820312 718.722656 416.070312 713.039062 422.414062 Z M 713.039062 422.414062 " fill-opacity="1" fill-rule="evenodd"/></g><g clip-path="url(#81f5c82fa5)"><path fill="#000000" d="M 709.578125 252.449219 C 751.414062 252.449219 791.226562 268.890625 820.847656 298.519531 C 850.375 328.050781 866.816406 367.871094 866.816406 409.714844 C 866.816406 451.554688 850.375 491.375 820.847656 520.910156 C 791.226562 550.535156 751.414062 566.976562 709.578125 566.976562 C 667.746094 566.976562 628.023438 550.535156 598.402344 520.910156 C 568.78125 491.375 552.339844 451.554688 552.339844 409.714844 C 552.339844 367.871094 568.78125 328.050781 598.402344 298.519531 C 628.023438 268.890625 667.746094 252.449219 709.578125 252.449219 Z M 815.761719 303.527344 C 787.484375 275.25 749.582031 259.574219 709.578125 259.574219 C 669.671875 259.574219 631.671875 275.25 603.398438 303.527344 C 575.214844 331.808594 559.449219 369.703125 559.449219 409.730469 C 559.449219 449.644531 575.214844 487.648438 603.398438 515.929688 C 631.671875 544.117188 669.65625 559.882812 709.578125 559.882812 C 749.582031 559.882812 787.484375 544.117188 815.761719 515.929688 C 844.035156 487.648438 859.707031 449.660156 859.707031 409.730469 C 859.707031 369.703125 844.035156 331.808594 815.761719 303.527344 Z M 815.761719 303.527344 " fill-opacity="1" fill-rule="evenodd"/></g></svg>