<svg width="368" height="298" viewBox="0 0 368 298" fill="none" xmlns="http://www.w3.org/2000/svg">
<path d="M205.831 13.6432C198.669 12.5847 192.283 8.80948 187.908 3.16428C186.779 1.7177 184.556 1.7177 183.427 3.16428C179.017 8.80948 172.525 12.62 165.327 13.6785C128.492 19.1825 94.4799 35.0596 75.5685 63.1798C56.8687 91.0529 65.1954 134.627 96.0676 149.022H52.1762C50.3415 149.022 48.8596 150.504 48.8949 152.339C50.4826 219.622 100.584 274.839 165.539 284.436C172.701 285.495 179.087 289.27 183.462 294.915C184.591 296.362 186.814 296.362 187.943 294.915C192.318 289.305 198.81 285.459 205.902 284.401C242.772 278.932 279.783 263.09 299.365 233.277C317.853 205.156 306.139 163.453 275.267 149.022H319.229C321.064 149.022 322.546 147.54 322.51 145.705C320.923 78.4571 270.822 23.24 205.831 13.6432Z" fill="#FF642D" stroke="white" stroke-width="2" stroke-miterlimit="10" stroke-linecap="round" stroke-linejoin="round"/>
<path d="M244.042 242.379C244.042 263.478 207.348 280.59 162.081 280.59C116.814 280.59 80.1199 263.478 80.1199 242.379V228.619H244.007V242.379H244.042Z" fill="black"/>
<path d="M240.126 254.128C242.666 250.424 244.077 246.507 244.077 242.415V228.655H240.126V254.128Z" fill="#FF642D"/>
<path d="M88.5877 231.23L85.13 228.619H80.1552V242.379C80.1552 248.448 83.1894 254.164 88.5877 259.28V231.23Z" fill="#FF642D"/>
<path d="M244.042 242.379C244.042 263.478 207.348 280.59 162.081 280.59C116.814 280.59 80.1199 263.478 80.1199 242.379V228.619H244.007V242.379H244.042Z" stroke="black" stroke-width="1.2" stroke-miterlimit="10" stroke-linecap="round" stroke-linejoin="round"/>
<path d="M162.081 266.83C207.347 266.83 244.042 249.722 244.042 228.619C244.042 207.516 207.347 190.408 162.081 190.408C116.815 190.408 80.1199 207.516 80.1199 228.619C80.1199 249.722 116.815 266.83 162.081 266.83Z" fill="#FF642D"/>
<path d="M140.77 191.749C105.841 196.124 80.1199 210.978 80.1199 228.619C80.1199 240.227 91.2339 250.6 108.734 257.621C107.358 256.775 87.9526 247.672 88.4465 227.702C88.9052 210.131 115.755 197.782 140.77 191.749Z" fill="white"/>
<path d="M162.116 266.83C207.382 266.83 244.078 249.722 244.078 228.619C244.078 207.516 207.382 190.408 162.116 190.408C116.85 190.408 80.1552 207.516 80.1552 228.619C80.1552 249.722 116.85 266.83 162.116 266.83Z" stroke="black" stroke-width="1.2" stroke-miterlimit="10" stroke-linecap="round" stroke-linejoin="round"/>
<path d="M126.693 218.034C113.109 224.209 117.061 235.57 117.837 236.981C123.694 248.166 150.967 252.435 173.16 244.884C149.909 246.013 125.987 242.767 123.658 229.96C123.129 227.031 123.023 223.009 126.693 218.034Z" fill="white"/>
<path d="M181.945 241.885C194.365 240.368 202.374 232.147 202.374 226.996C202.374 221.175 196.411 216.976 187.414 216.129C191.648 217.646 195.741 220.01 195.599 225.161C195.388 231.653 188.613 238.992 181.945 241.885Z" fill="white"/>
<path d="M199.586 204.027C215.852 209.672 226.366 218.563 226.366 228.619C226.366 238.674 215.852 247.566 199.586 253.211C219.556 248.095 232.822 238.992 232.822 228.619C232.822 218.246 219.521 209.178 199.586 204.027Z" fill="white"/>
<path d="M113.991 223.009C109.228 216.976 128.492 209.143 131.385 209.143C128.175 210.66 116.708 216.976 113.991 223.009Z" fill="white"/>
<path d="M199.562 70.2794C202.181 63.2492 190.404 52.3719 173.257 45.9843C156.111 39.5967 140.088 40.1176 137.469 47.1479C134.85 54.1781 146.627 65.0554 163.773 71.443C180.92 77.8306 196.943 77.3096 199.562 70.2794Z" fill="black" stroke="black" stroke-width="1.2" stroke-miterlimit="10"/>
<path d="M219.705 16.2549C215.313 25.6311 212.581 34.3563 210.806 41.728C187.202 37.9528 163.598 34.1775 139.994 30.4023L138.99 19.4647C156.06 14.0751 169.251 18.5828 185.834 2C197.83 16.2549 210.209 13.897 219.705 16.2549Z" fill="white"/>
<path d="M138.99 19.4648L139.994 30.4024C163.598 34.1776 187.202 37.9528 210.806 41.7281C212.573 34.3908 215.287 25.7126 219.643 16.3862" stroke="black" stroke-width="1.2" stroke-miterlimit="10" stroke-linecap="round" stroke-linejoin="round"/>
<path d="M218.992 45.6444C214.581 28.4619 176.265 12.0202 142.605 20.5233C137.172 21.8993 132.726 25.851 130.786 31.0728C129.339 34.9891 128.457 40.0345 130.009 45.5386C132.162 53.2655 138.124 56.6526 139.959 57.9227C140.771 58.205 141.547 58.5225 142.358 58.8048C138.124 54.6415 136.184 50.4781 137.419 47.1616C140.03 40.1404 156.083 39.6111 173.23 45.9973C190.378 52.3834 202.162 63.2857 199.551 70.3069C198.21 73.941 193.236 75.8462 186.426 75.9521C189.072 76.9753 191.718 77.9632 194.365 78.9511C211.512 78.9511 213.805 59.2282 214.017 57.3229C214.97 56.5467 216.593 54.959 217.757 52.4892C219.098 49.5255 219.062 46.9146 218.992 45.6444Z" fill="white" stroke="black" stroke-width="1.2" stroke-miterlimit="10" stroke-linecap="round" stroke-linejoin="round"/>
<path d="M195.07 37.4941C199.198 39.9639 211.477 46.1031 213.982 57.2523" stroke="black" stroke-width="1.2" stroke-miterlimit="10" stroke-linecap="round" stroke-linejoin="round"/>
<path d="M176.194 123.372C180.287 114.798 184.38 105.73 188.402 96.1688C192.636 86.0074 196.411 76.1989 199.763 66.7432C198.352 59.969 187.696 51.3953 173.23 45.9971C159.047 40.7047 145.64 40.1755 139.924 44.0918C140.1 51.9245 139.853 69.3894 135.443 81.3149C133.291 87.1717 128.774 91.8996 123.059 94.4752C114.026 98.5327 100.513 101.673 81.8135 102.908C79.873 103.049 78.2147 104.425 77.8619 106.33C77.4738 108.271 77.756 109.717 78.0736 110.67C80.4728 117.726 93.7743 121.502 111.31 118.785" fill="#FF642D"/>
<path d="M156.93 96.063C149.168 94.5459 90.5282 126.688 77.7207 108.165C77.7207 109.188 77.8971 110.035 78.1088 110.67C80.508 117.726 93.8095 121.502 111.345 118.785L167.197 122.737C169.632 112.011 169.737 98.6034 156.93 96.063Z" fill="white"/>
<path d="M176.194 123.372C180.287 114.798 184.38 105.73 188.402 96.1688C192.636 86.0074 196.411 76.1989 199.763 66.7432C198.352 59.969 187.696 51.3953 173.23 45.9971C159.047 40.7047 145.64 40.1755 139.924 44.0918C140.1 51.9245 139.853 69.3894 135.443 81.3149C133.291 87.1717 128.774 91.8996 123.059 94.4752C114.026 98.5327 100.513 101.673 81.8135 102.908C79.873 103.049 78.2147 104.425 77.8619 106.33C77.4738 108.271 77.756 109.717 78.0736 110.67C80.4728 117.726 93.7743 121.502 111.31 118.785" stroke="black" stroke-width="1.2" stroke-miterlimit="10" stroke-linecap="round" stroke-linejoin="round"/>
<path d="M126.94 192.384L144.228 229.96C145.604 233.982 153.084 237.052 162.116 237.052C171.149 237.052 178.629 233.982 180.005 229.96L197.293 192.384" fill="black"/>
<path d="M126.94 192.384L144.228 229.96C145.604 233.982 153.084 237.052 162.116 237.052C171.149 237.052 178.629 233.982 180.005 229.96L197.293 192.384" stroke="black" stroke-width="1.2" stroke-miterlimit="10" stroke-linecap="round" stroke-linejoin="round"/>
<path d="M162.081 202.228C181.625 202.228 197.469 197.284 197.469 191.185C197.469 185.085 181.625 180.141 162.081 180.141C142.537 180.141 126.693 185.085 126.693 191.185C126.693 197.284 142.537 202.228 162.081 202.228Z" fill="#FF642D" stroke="black" stroke-width="1.2" stroke-miterlimit="10" stroke-linecap="round" stroke-linejoin="round"/>
<path d="M189.954 191.926C189.954 191.89 189.99 191.855 189.99 191.82L203.009 164.088L139.465 167.969L121.189 164.088L134.208 191.784C134.243 191.855 134.279 191.926 134.314 191.996L134.349 192.067C136.184 195.313 147.898 197.782 162.116 197.782C176.335 197.782 188.049 195.277 189.884 192.067L189.954 191.926Z" fill="black" stroke="black" stroke-width="1.2" stroke-miterlimit="10" stroke-linecap="round" stroke-linejoin="round"/>
<path d="M221.073 141.048H103.124L111.909 159.924L114.097 164.652L117.202 171.32L117.731 172.485C117.766 172.52 117.837 172.555 117.837 172.591C118.296 173.261 118.895 173.931 119.636 174.566C125.987 180 142.57 183.881 162.081 183.881C178.734 183.881 193.271 181.058 201.104 176.825C203.714 175.413 205.584 173.861 206.537 172.203L212.853 158.654L221.073 141.048Z" fill="#FF642D" stroke="black" stroke-width="1.2" stroke-miterlimit="10"/>
<path d="M162.116 137.626C189.377 137.626 211.477 132.65 211.477 126.512C211.477 120.374 189.377 115.398 162.116 115.398C134.856 115.398 112.756 120.374 112.756 126.512C112.756 132.65 134.856 137.626 162.116 137.626Z" stroke="black" stroke-width="1.2" stroke-miterlimit="10" stroke-linecap="round" stroke-linejoin="round"/>
<path d="M105.911 146.94L109.828 155.302C116.884 162.183 137.877 167.051 162.116 167.051C186.391 167.051 207.49 162.006 214.511 155.091L218.956 145.564L105.911 146.94Z" fill="black"/>
<path d="M97.8318 129.617L107.429 150.186C112.121 158.372 134.808 164.617 162.116 164.617C189.355 164.617 212.006 158.407 216.769 150.257L217.369 148.987C217.369 148.951 217.404 148.916 217.404 148.846C217.404 148.846 217.404 148.81 217.439 148.81L226.366 129.652H97.8318V129.617Z" fill="white"/>
<path d="M162.116 106.013C126.234 106.013 97.1261 115.186 97.1261 126.512C97.1261 137.837 126.234 147.011 162.116 147.011C197.999 147.011 227.107 137.837 227.107 126.512C227.071 115.186 197.999 106.013 162.116 106.013ZM162.116 137.626C134.843 137.626 112.756 132.651 112.756 126.512C112.756 120.373 134.843 115.398 162.116 115.398C189.39 115.398 211.477 120.373 211.477 126.512C211.477 132.651 189.354 137.626 162.116 137.626Z" fill="#FF642D" stroke="black" stroke-width="1.2" stroke-miterlimit="10" stroke-linecap="round" stroke-linejoin="round"/>
<path d="M162.116 137.626C189.377 137.626 211.477 132.65 211.477 126.512C211.477 120.374 189.377 115.398 162.116 115.398C134.856 115.398 112.756 120.374 112.756 126.512C112.756 132.65 134.856 137.626 162.116 137.626Z" fill="black"/>
<path d="M290.792 118.291C296.79 132.475 297.919 146.094 292.908 147.681C288.533 149.057 279.289 139.919 273.256 125.736C267.223 111.552 266.306 98.3918 271.139 96.3454C275.973 94.299 284.794 104.108 290.792 118.291Z" fill="black" stroke="black" stroke-width="1.2" stroke-miterlimit="10"/>
<path d="M159.011 210.59C154.001 211.155 151.073 216.165 152.484 218.74C156.083 225.303 199.234 223.398 220.438 205.827C236.88 190.867 250.005 169.627 256.709 157.525C258.896 153.574 262.495 150.539 266.764 149.022C279.819 144.4 292.838 139.743 305.892 135.121L280.524 94.9341" fill="#FF642D"/>
<path d="M159.011 210.59C154.001 211.154 151.073 216.164 152.484 218.74C156.083 225.303 199.234 223.397 220.438 205.827C236.88 190.867 250.005 169.627 256.709 157.525C258.896 153.573 262.495 150.539 266.764 149.022C279.819 144.4 292.838 139.743 305.892 135.121" stroke="black" stroke-width="1.2" stroke-miterlimit="10" stroke-linecap="round" stroke-linejoin="round"/>
<path d="M150.473 203.251C145.393 206.039 145.11 209.426 145.463 211.507C146.592 218.105 168.15 220.01 212.041 210.167" fill="#FF642D"/>
<path d="M150.473 203.251C145.393 206.039 145.11 209.426 145.463 211.507C146.557 217.858 166.668 219.869 207.525 211.155" stroke="black" stroke-width="1.2" stroke-miterlimit="10" stroke-linecap="round" stroke-linejoin="round"/>
<path d="M206.537 203.851C196.058 206.321 148.78 211.966 143.276 203.427C140.135 198.558 148.145 192.843 157.918 191.149C174.254 188.362 196.164 186.28 206.537 184.869" fill="#FF642D"/>
<path d="M206.537 203.851C196.058 206.321 148.78 211.966 143.276 203.427C140.135 198.558 148.145 192.843 157.918 191.149C174.254 188.362 196.164 186.28 206.537 184.869" stroke="black" stroke-width="1.2" stroke-miterlimit="10" stroke-linecap="round" stroke-linejoin="round"/>
<path d="M206.396 189.209C198.74 192.384 160.352 206.286 156.048 200.252C151.038 188.362 180.111 175.096 196.199 168.569C202.974 165.817 208.548 160.771 211.865 154.279C214.652 148.81 216.981 143.236 217.757 140.942L224.143 152.938" fill="#FF642D"/>
<path d="M218.921 186.069C219.521 189.385 219.98 193.478 219.838 198.135C219.733 201.452 219.38 204.415 218.921 206.956" stroke="black" stroke-width="1.2" stroke-miterlimit="10" stroke-linecap="round" stroke-linejoin="round"/>
<path d="M280.454 94.9341C272.515 97.7214 244.466 108.306 232.046 114.092C227.848 116.033 224.284 119.173 221.85 123.125C220.333 125.63 218.992 128.664 218.286 132.192C216.769 140.025 218.674 159.96 223.543 168.71C226.472 174.002 234.234 174.531 235.539 167.051C236.104 160.877 237.586 142.883 239.667 139.884" fill="#FF642D"/>
<path d="M228.8 126.512C240.585 111.34 251.628 109.188 258.755 103.049C248.947 106.86 238.432 111.129 232.011 114.092C227.812 116.033 224.249 119.173 221.814 123.125C220.297 125.63 218.957 128.664 218.251 132.192C216.734 140.025 218.639 159.96 223.508 168.71C222.767 163.735 221.356 136.109 228.8 126.512Z" fill="white"/>
<path d="M280.454 94.9341C272.515 97.7214 244.466 108.306 232.046 114.092C227.848 116.033 224.284 119.173 221.85 123.125C220.333 125.63 218.992 128.664 218.286 132.192C216.769 140.025 218.674 159.96 223.543 168.71C226.472 174.002 234.234 174.531 235.539 167.051C236.104 160.877 237.586 142.883 239.667 139.884" stroke="black" stroke-width="1.2" stroke-miterlimit="10" stroke-linecap="round" stroke-linejoin="round"/>
<path d="M301.56 76.3274C299.383 78.3253 296.637 80.4892 293.261 82.5147C288.851 85.1608 284.688 86.7133 281.371 87.6659C278.443 86.925 275.655 87.0661 273.256 88.1951C271.069 89.2536 267.011 92.6054 266.235 100.191C266.941 99.9089 267.893 99.5561 268.811 99.2033C269.34 97.792 270.116 96.7688 271.175 96.3101C275.444 94.5107 282.782 101.92 288.569 113.387C288.604 113.422 288.604 113.493 288.639 113.528C288.851 113.951 289.063 114.375 289.274 114.798C289.345 114.939 289.38 115.045 289.451 115.186C289.627 115.574 289.804 115.927 289.98 116.315C290.051 116.456 290.086 116.598 290.157 116.703C290.368 117.197 290.615 117.727 290.827 118.221C291.391 119.561 291.921 120.867 292.379 122.172C292.697 123.054 292.979 123.901 293.261 124.748C293.826 126.441 294.285 128.1 294.673 129.723C295.061 131.31 295.378 132.863 295.59 134.309C295.696 135.05 295.802 135.756 295.872 136.426C296.472 142.283 295.519 146.482 292.944 147.576C292.767 147.646 299.612 149.375 307.057 146.341C312.115 144.294 317.501 141.688 322.024 139.209C320.613 108.2 310.91 92.676 301.56 76.3274Z" fill="white"/>
<path d="M284.017 142.848C287.157 146.094 289.027 148.281 297.319 148.281C305.598 148.258 315.121 143.262 322.2 139.018M266.27 100.191C267.046 92.6053 271.104 89.2534 273.291 88.195C275.691 87.0659 278.478 86.9248 281.406 87.6657C284.723 86.7131 288.886 85.1607 293.297 82.5145C296.705 80.4694 299.471 78.2835 301.658 76.2695" stroke="black" stroke-width="1.2" stroke-miterlimit="10" stroke-linecap="round" stroke-linejoin="round"/>
<path d="M266.235 100.191C267.011 92.6052 271.069 89.2534 273.256 88.1949C284.617 82.7967 304.234 100.12 307.198 121.996" stroke="black" stroke-width="1.2" stroke-miterlimit="10" stroke-linecap="round" stroke-linejoin="round"/>
<path d="M268.775 99.2033C269.305 97.792 270.081 96.7688 271.139 96.3454C275.973 94.299 284.758 104.108 290.792 118.291C296.825 132.475 297.742 145.635 292.908 147.681C291.497 148.281 289.874 147.434 287.757 146.235" stroke="black" stroke-width="1.2" stroke-miterlimit="10" stroke-linecap="round" stroke-linejoin="round"/>
<path d="M217.757 140.942C216.945 143.271 214.581 148.987 211.724 154.561C208.125 161.512 201.95 166.769 194.47 169.098C171.396 176.331 152.167 188.009 155.73 199.335C156.012 200.217 156.648 200.923 157.53 201.24C165.821 204.274 199.304 192.137 206.396 189.209" fill="#FF642D"/>
<path d="M155.695 199.335C155.907 200.041 156.401 200.64 157.036 201.028C154.072 193.09 188.402 172.908 197.469 168.004L197.434 167.969C196.482 168.392 195.494 168.78 194.47 169.098C171.396 176.331 152.167 188.009 155.695 199.335Z" fill="white"/>
<path d="M217.757 140.942C216.945 143.271 214.581 148.987 211.724 154.561C208.125 161.512 201.95 166.769 194.47 169.098C171.396 176.331 152.167 188.009 155.73 199.335C156.012 200.217 156.648 200.923 157.53 201.24C165.821 204.274 199.304 192.137 206.396 189.209" stroke="black" stroke-width="1.2" stroke-miterlimit="10" stroke-linecap="round" stroke-linejoin="round"/>
<path d="M112.262 184.904L104.782 186.069C106.335 186.951 120.236 199.017 129.939 193.196C134.667 190.373 130.927 177.636 120.024 173.402C115.967 175.837 116.32 182.434 112.262 184.904Z" fill="#FF642D"/>
<path d="M112.262 184.904L104.782 186.069C106.335 186.951 120.236 199.017 129.939 193.196C134.667 190.373 130.927 177.636 120.024 173.402C115.967 175.837 116.32 182.434 112.262 184.904Z" stroke="black" stroke-width="1.2" stroke-miterlimit="10" stroke-linecap="round" stroke-linejoin="round"/>
<path d="M122.036 188.15C117.731 191.185 100.937 188.927 93.9507 174.884C95.8207 166.628 98.5801 145.564 100.45 137.308C102.496 139.072 110.574 156.361 110.574 156.361C111.192 160.004 112.232 163.337 113.25 165.358C129.057 175.131 125.705 185.575 122.036 188.15Z" fill="#FF642D"/>
<path d="M93.9507 174.884C100.937 188.927 117.731 191.185 122.036 188.15C125.705 185.575 129.057 175.131 113.25 165.358C112.315 163.502 111.361 160.538 110.733 157.243" stroke="black" stroke-width="1.2" stroke-miterlimit="10" stroke-linecap="round" stroke-linejoin="round"/>
<path d="M93.5699 120.455C88.1486 129.657 85.0829 139.147 85.0242 147.928C84.9536 157.208 87.3881 165.852 92.4335 172.873C95.9265 177.777 100.266 181.27 104.535 183.775C107.464 185.504 111.31 183.916 112.015 180.6C114.043 171.414 103.684 159.713 106.611 148.246L93.5699 120.455Z" fill="#FF642D"/>
<path d="M109.122 184.057C110.498 183.458 111.627 182.223 111.98 180.6C114.018 171.366 103.542 159.593 106.621 148.069L103.086 140.484C102.74 141.525 102.422 142.607 102.136 143.73C97.4789 162.288 111.521 173.367 109.122 184.057Z" fill="white"/>
<path d="M94.0992 119.491C93.964 119.72 93.3494 120.831 93.2171 121.06C88.0157 130.072 85.0816 139.339 85.0242 147.928C84.9536 157.208 87.3881 165.852 92.4335 172.873C95.9265 177.777 100.266 181.27 104.535 183.775C107.464 185.504 111.31 183.916 112.015 180.6C114.033 171.461 103.79 159.833 106.567 148.422" stroke="black" stroke-width="1.2" stroke-miterlimit="10" stroke-linecap="round" stroke-linejoin="round"/>
<path d="M96.985 119.561C98.361 119.632 99.6665 119.667 100.866 119.667C100.407 120.02 97.1261 122.56 97.1261 126.512C97.1261 127.06 97.1923 127.599 97.3248 128.133M97.3248 128.133L113.285 162.747L109.863 155.338L107.464 150.186L97.867 129.617C97.6289 129.123 97.4481 128.63 97.3248 128.133ZM112.721 126.512C112.721 120.373 134.808 115.398 162.081 115.398C189.355 115.398 211.441 120.373 211.441 126.512C211.441 127.57 210.771 128.629 209.501 129.617H114.662C113.427 128.629 112.721 127.606 112.721 126.512Z" stroke="black" stroke-width="1.2" stroke-miterlimit="10" stroke-linecap="round" stroke-linejoin="round"/>
<path d="M105.629 48.1847C101.184 38.9054 92.998 33.0838 85.3417 32.9074L84.6714 31.4961L78.885 34.2481C69.888 38.5526 67.2418 51.7835 72.9576 63.7796C78.7086 75.7756 90.6694 81.9853 99.6664 77.6809L105.453 74.9288L104.782 73.5175C109.475 67.4842 110.075 57.464 105.629 48.1847Z" fill="black" stroke="black" stroke-width="1.2" stroke-miterlimit="10" stroke-linecap="round" stroke-linejoin="round"/>
<path d="M105.495 74.9675C114.51 70.6491 117.158 57.4178 111.409 45.4144C105.659 33.4111 93.6898 27.1813 84.6742 31.4997C75.6585 35.8181 73.0107 49.0495 78.7602 61.0528C84.5096 73.0561 96.4791 79.2859 105.495 74.9675Z" fill="white" stroke="black" stroke-width="1.2" stroke-miterlimit="10" stroke-linecap="round" stroke-linejoin="round"/>
<path d="M108.064 57.1114L90.8457 65.3675C90.0343 65.7557 89.0816 65.4028 88.6935 64.5913L82.2015 51.0429C81.8134 50.2314 82.1663 49.2787 82.9778 48.8906L100.196 40.6345C101.007 40.2464 101.96 40.5992 102.348 41.4107L108.84 54.9592C109.228 55.7707 108.875 56.7586 108.064 57.1114Z" stroke="#FF642D" stroke-width="1.2" stroke-miterlimit="10" stroke-linecap="round" stroke-linejoin="round"/>
<path d="M82.7661 50.1961L93.9859 53.8655C95.2914 54.2889 96.6674 53.6185 97.1614 52.3484L101.466 41.0227" stroke="#FF642D" stroke-width="1.2" stroke-miterlimit="10" stroke-linecap="round" stroke-linejoin="round"/>
<path d="M97.1614 52.1365L108.593 56.0528" stroke="#FF642D" stroke-width="1.2" stroke-miterlimit="10" stroke-linecap="round" stroke-linejoin="round"/>
<path d="M89.8932 64.8382L93.7743 53.7595" stroke="#FF642D" stroke-width="1.2" stroke-miterlimit="10" stroke-linecap="round" stroke-linejoin="round"/>
<path d="M88.7289 141.225L85.6946 140.766C85.4124 142.248 85.2007 143.941 85.0948 145.811C84.989 147.47 84.989 148.987 85.0596 150.398" fill="#FF642D"/>
<path d="M85.6946 140.801C85.4124 142.283 85.2007 143.977 85.0948 145.847C84.989 147.505 84.989 149.022 85.0596 150.433" stroke="black" stroke-width="1.2" stroke-miterlimit="10" stroke-linecap="round" stroke-linejoin="round"/>
<path d="M239.244 75.2112C244.36 78.4925 245.277 86.2193 241.255 92.4291C237.233 98.6388 229.859 101.003 224.743 97.7214L221.215 95.4633L235.716 72.9531L239.244 75.2112Z" fill="black" stroke="black" stroke-width="1.2" stroke-miterlimit="10" stroke-linecap="round" stroke-linejoin="round"/>
<path d="M237.702 90.1697C241.713 83.9453 240.821 76.2297 235.711 72.9364C230.6 69.643 223.206 72.0191 219.195 78.2435C215.184 84.4678 216.075 92.1834 221.185 95.4768C226.296 98.7701 233.69 96.394 237.702 90.1697Z" fill="white" stroke="black" stroke-width="1.2" stroke-miterlimit="10" stroke-linecap="round" stroke-linejoin="round"/>
<path d="M235.539 82.5146C235.257 81.8795 234.834 81.315 234.234 80.9621C233.175 80.2918 231.87 80.2565 230.67 80.7857C230.635 79.4803 230.071 78.2807 229.012 77.6103C228.412 77.2222 227.742 77.0458 227.036 77.0811C225.554 77.1164 223.967 77.9984 222.979 79.5508C222.697 80.0095 222.485 80.4682 222.344 80.9269C220.862 84.4904 223.543 91.8644 223.543 91.8644C223.543 91.8644 231.376 91.2293 233.987 88.442C234.34 88.1245 234.693 87.7364 234.975 87.2777C235.963 85.69 236.139 83.8906 235.539 82.5146Z" stroke="#FF642D" stroke-width="1.2" stroke-miterlimit="10" stroke-linecap="round" stroke-linejoin="round"/>
<path d="M134.49 140.484C142.655 140.484 149.274 133.865 149.274 125.7C149.274 117.536 142.655 110.917 134.49 110.917C126.326 110.917 119.707 117.536 119.707 125.7C119.707 133.865 126.326 140.484 134.49 140.484Z" fill="white" stroke="black" stroke-width="1.2" stroke-miterlimit="10" stroke-linecap="round" stroke-linejoin="round"/>
<path d="M145.004 130.746L131.209 136.885L124.223 127.429L142.64 119.208L145.004 130.746Z" stroke="#FF642D" stroke-width="1.2" stroke-miterlimit="10" stroke-linecap="round" stroke-linejoin="round"/>
<path d="M126.728 130.781L143.487 123.301" stroke="#FF642D" stroke-width="1.2" stroke-miterlimit="10" stroke-linecap="round" stroke-linejoin="round"/>
<path d="M129.057 133.956L144.264 127.182" stroke="#FF642D" stroke-width="1.2" stroke-miterlimit="10" stroke-linecap="round" stroke-linejoin="round"/>
<path d="M127.681 125.912L134.349 135.509" stroke="#FF642D" stroke-width="1.2" stroke-miterlimit="10" stroke-linecap="round" stroke-linejoin="round"/>
<path d="M141.864 132.157L139.183 120.761" stroke="#FF642D" stroke-width="1.2" stroke-miterlimit="10" stroke-linecap="round" stroke-linejoin="round"/>
<path d="M133.432 123.336L138.124 133.815" stroke="#FF642D" stroke-width="1.2" stroke-miterlimit="10" stroke-linecap="round" stroke-linejoin="round"/>
<path d="M128.88 118.467L127.681 125.912" stroke="#FF642D" stroke-width="1.2" stroke-miterlimit="10" stroke-linecap="round" stroke-linejoin="round"/>
<path d="M139.183 120.761L132.867 116.703" stroke="#FF642D" stroke-width="1.2" stroke-miterlimit="10" stroke-linecap="round" stroke-linejoin="round"/>
<path d="M171.431 118.75C163.845 121.96 154.672 117.48 150.967 108.694C147.262 99.9441 150.403 90.2062 157.988 86.9955L162.293 85.196L175.735 116.915L171.431 118.75Z" fill="black" stroke="black" stroke-width="1.2" stroke-miterlimit="10" stroke-linecap="round" stroke-linejoin="round"/>
<path d="M175.739 116.88C183.328 113.663 186.472 103.959 182.762 95.2037C179.051 86.4486 169.891 81.9585 162.302 85.1748C154.713 88.391 151.569 98.0957 155.28 106.851C158.99 115.606 168.15 120.096 175.739 116.88Z" fill="white" stroke="black" stroke-width="1.2" stroke-miterlimit="10" stroke-linecap="round" stroke-linejoin="round"/>
<path d="M171.149 87.8069L170.584 88.0538L164.269 96.5922L167.55 104.354L178.064 105.73L178.629 105.483C179.193 105.236 179.475 104.566 179.228 104.002L172.631 88.4067C172.384 87.8069 171.713 87.5599 171.149 87.8069Z" stroke="#FF642D" stroke-width="1.2" stroke-miterlimit="10" stroke-linecap="round" stroke-linejoin="round"/>
<path d="M167.585 104.319L161.869 105.942C161.128 106.154 160.352 105.766 160.07 105.06L158.518 101.426C158.235 100.72 158.482 99.9088 159.153 99.5207L164.304 96.5217L167.585 104.319Z" stroke="#FF642D" stroke-width="1.2" stroke-miterlimit="10" stroke-linecap="round" stroke-linejoin="round"/>
<path d="M165.468 104.919L162.293 105.836L168.75 113.316C169.208 113.845 169.914 114.057 170.478 113.81C171.431 113.422 171.643 112.011 170.866 111.129L165.468 104.919Z" stroke="#FF642D" stroke-width="1.2" stroke-miterlimit="10" stroke-linecap="round" stroke-linejoin="round"/>
<path d="M187.273 133.533C195.211 137.908 206.008 133.498 211.406 123.689C216.804 113.881 214.758 102.379 206.819 98.0389L201.809 95.2869L182.263 130.781L187.273 133.533Z" fill="black" stroke="black" stroke-width="1.2" stroke-miterlimit="10" stroke-linecap="round" stroke-linejoin="round"/>
<path d="M206.407 120.936C211.801 111.138 209.74 99.6527 201.802 95.2826C193.865 90.9125 183.057 95.3127 177.663 105.111C172.268 114.909 174.33 126.394 182.267 130.764C190.204 135.134 201.012 130.734 206.407 120.936Z" stroke="black" stroke-width="1.2" stroke-miterlimit="10" stroke-linecap="round" stroke-linejoin="round"/>
<path d="M206.407 120.936C211.801 111.138 209.74 99.6527 201.802 95.2826C193.865 90.9125 183.057 95.3127 177.663 105.111C172.268 114.909 174.33 126.394 182.267 130.764C190.204 135.134 201.012 130.734 206.407 120.936Z" fill="white" stroke="black" stroke-width="1.2" stroke-miterlimit="10" stroke-linecap="round" stroke-linejoin="round"/>
<path d="M200.063 108.521C201.651 105.636 201.043 102.254 198.704 100.966C196.366 99.6788 193.183 100.974 191.594 103.858C190.006 106.743 190.614 110.126 192.953 111.413C195.291 112.701 198.475 111.406 200.063 108.521Z" stroke="#FF642D" stroke-width="1.2" stroke-miterlimit="10" stroke-linecap="round" stroke-linejoin="round"/>
<path d="M191.295 114.375C187.943 112.54 183.674 113.457 180.252 116.35C180.534 120.09 182.298 123.372 185.403 125.065C188.472 126.759 192.212 126.512 195.529 124.748C196.164 120.337 194.647 116.209 191.295 114.375Z" stroke="#FF642D" stroke-width="1.2" stroke-miterlimit="10" stroke-linecap="round" stroke-linejoin="round"/>
<path d="M62.1612 162.183C61.4908 161.724 60.7851 161.3 60.0795 160.948L60.1853 160.313L56.516 159.713C50.6944 158.478 44.4141 160.736 40.78 165.958C35.911 172.908 37.6046 182.47 44.5552 187.339C46.4957 188.715 48.648 189.526 50.8355 189.915H50.8708L54.893 190.585L54.9988 190.02C59.268 189.562 63.2902 187.339 65.9364 183.564C70.8054 176.613 69.1118 167.051 62.1612 162.183Z" fill="black" stroke="black" stroke-width="1.2" stroke-miterlimit="10" stroke-linecap="round" stroke-linejoin="round"/>
<path d="M57.2217 190.726C65.6981 190.726 72.5695 183.855 72.5695 175.378C72.5695 166.902 65.6981 160.03 57.2217 160.03C48.7453 160.03 41.8738 166.902 41.8738 175.378C41.8738 183.855 48.7453 190.726 57.2217 190.726Z" fill="white" stroke="black" stroke-width="1.2" stroke-miterlimit="10" stroke-linecap="round" stroke-linejoin="round"/>
<path d="M60.6793 182.188L63.0432 166.699L49.3184 174.249L54.3285 175.272L49.7417 181.87L53.3758 184.411L57.9978 177.813L60.6793 182.188Z" stroke="#FF642D" stroke-width="1.2" stroke-miterlimit="10" stroke-linecap="round" stroke-linejoin="round"/>
<path d="M319.229 149.022C321.064 149.022 322.546 147.54 322.511 145.705C320.923 78.4571 270.822 23.24 205.831 13.6432C198.669 12.5847 192.283 8.80948 187.908 3.16428C186.779 1.7177 184.556 1.7177 183.427 3.16428C179.017 8.80948 172.525 12.62 165.327 13.6785C147.934 16.2775 131.169 21.1895 116.327 28.6114" stroke="white" stroke-width="2" stroke-miterlimit="10" stroke-linecap="round" stroke-linejoin="round"/>
</svg>
