<svg viewBox="0 0 945 30"  xmlns="http://www.w3.org/2000/svg" fill="currentColor" color="#FCA303FF" fill-rule="evenodd" clip-rule="evenodd" stroke-linejoin="round" stroke-miterlimit="2">
<path d="M425.61 24.3762L430.269 26.0425C424.63 28.7503 420.585 27.7088 424.998 30C425.61 24.3762 443.018 29.3751 443.63 23.7513L446.695 25.0011C445.837 25.0011 445.714 25.2094 444.856 25.2094C450.863 27.9171 449.269 21.0436 456.992 21.8768C459.689 22.2933 461.528 23.1265 459.689 23.7513L465.696 22.2933C467.412 22.5016 467.044 23.3348 465.328 23.3348L474.399 22.9182L474.276 23.1265C475.625 22.2933 478.567 20.8353 479.915 20.2104C482.244 21.0436 478.812 20.8353 479.302 21.4602L484.328 20.0022C486.412 21.4602 482.244 22.9182 478.689 22.7099C483.348 28.3337 482.857 21.2519 493.032 24.5845L488.251 25.2094C491.316 28.3337 494.993 27.2923 500.386 29.1669C499.161 28.1254 489.599 24.1679 495.115 22.7099C496.709 23.1265 498.67 23.3348 501.612 22.2933C501.612 24.3762 504.554 23.7513 508.109 23.7513L507.864 26.4591C511.787 25.6259 511.419 24.3762 513.748 23.1265C518.038 23.3348 519.019 25.4177 520 27.2923C526.986 27.7088 515.219 23.9596 523.431 23.543C529.196 24.5845 533.238 23.543 540.105 21.8768C544.148 22.7099 539.37 23.543 540.84 24.1679L544.394 22.085C545.25 22.085 545.009 22.7099 544.883 23.1265C547.949 22.2933 545.129 20.4187 549.912 19.7938C551.135 16.8778 559.593 24.1679 565.478 20.8353C566.948 21.6684 564.743 22.5016 565.232 23.543C573.322 21.2519 572.099 21.8768 578.719 18.9607L584.357 20.627C580.189 18.5441 585.46 16.253 590.117 14.3784C588.647 13.3369 587.423 12.5037 586.562 12.0872L593.918 10.6291C594.779 11.0457 594.038 12.0872 592.815 13.1286C593.303 12.9203 593.797 12.712 594.164 12.5037C596.858 13.5452 595.388 15.0032 593.55 16.4612C592.694 15.8364 591.713 15.4198 590.852 14.7949C589.014 16.4612 587.297 18.1276 587.665 19.7938C588.158 19.5856 589.014 19.169 590.117 19.169C589.628 19.5856 589.382 20.0022 589.508 20.2104C589.749 20.4187 590.484 20.0022 591.713 19.169L593.429 22.085L593.797 20.8353L603.478 22.7099C610.345 19.7938 616.472 15.4198 627.381 14.1701C624.688 16.253 626.772 17.711 626.646 20.2104C623.706 17.5027 618.188 21.4602 612.429 20.8353C615.369 21.0436 614.755 22.2933 614.02 22.7099L624.194 20.2104C623.953 22.2933 626.405 21.8767 628.977 22.7099C627.014 18.5441 636.579 20.0022 640.621 18.7524C640.868 20.2104 639.886 21.6684 634.862 21.2519C640.375 24.3762 642.091 16.253 647.488 18.9607C646.26 18.9607 645.651 18.7524 645.157 19.5856C647.977 18.3358 655.085 19.3773 653.374 20.627H652.145C660.356 21.0436 677.03 20.627 678.253 17.0861C678.379 17.5027 677.151 21.4602 676.663 22.085L691.247 10.2126C690.024 13.3369 694.927 20.4187 688.06 22.2933C690.024 22.7099 692.476 23.3348 696.518 22.085C695.174 21.6684 693.211 17.711 695.048 17.5027C700.078 20.8353 698.482 19.3773 704.614 22.2933C702.65 21.6684 704.855 16.8778 707.921 17.0861C707.433 17.711 708.168 21.8768 707.065 22.2933L714.909 17.711C712.945 18.5441 714.541 21.6684 716.258 22.9182C715.397 22.085 722.999 22.9182 725.083 22.5016L721.771 21.4602C730.601 22.085 730.475 14.7949 739.3 15.2115C738.198 16.253 736.728 21.2519 741.143 21.6684C743.227 19.169 750.21 10.2126 757.932 8.33795L759.408 9.796L765.414 8.12968C761.733 11.6706 751.317 19.3773 745.679 22.2933C748.986 23.3348 746.656 23.9596 751.559 23.7513C753.276 25.0011 748.866 25.6259 747.39 25.8342L758.914 26.6674C758.426 23.9596 767.739 23.9596 767.251 21.4602L754.992 24.1679C754.504 21.4602 762.227 16.253 770.438 16.6695C772.522 17.711 768.847 21.6684 769.089 22.5016C770.191 21.4602 776.811 20.627 777.546 21.2519L774.118 22.7099C778.654 23.7513 781.594 18.9607 786.986 21.6684C788.829 21.8767 792.624 25.2094 792.992 23.543C789.931 20.4187 789.317 10.4209 791.401 8.12968C792.015 8.33795 801.329 11.254 803.413 12.712C806.479 15.2115 798.756 18.7524 801.455 20.8353C801.576 20.0022 803.292 19.169 804.027 18.7524C805.986 19.3773 803.166 21.0436 807.461 20.8353C808.196 17.9192 816.16 21.0436 809.545 18.3358C813.708 17.5027 813.955 18.9607 818.979 18.7524C817.389 16.8778 823.395 12.5037 827.684 11.6706C827.442 12.2955 828.419 13.3369 828.786 13.7535C837.37 13.9618 842.027 15.2115 850.117 15.4198C850.852 16.0446 854.774 16.8778 853.062 18.1276C854.165 17.711 855.267 16.6695 857.719 16.6695C862.496 19.169 852.201 17.0861 855.882 20.0022C856.249 18.3358 862.255 17.711 865.809 16.6695C864.707 14.1701 857.593 16.253 854.039 17.2944C854.039 13.7535 860.171 10.0043 868.628 8.54627C875.369 7.71308 871.568 10.8374 872.671 10.4209C885.176 11.0457 883.339 4.38047 893.76 6.87994C897.923 9.17114 894.002 11.254 894.863 12.9203C889.466 13.7535 886.526 11.4623 882.845 11.6706L887.381 12.712C885.665 13.5452 881.99 13.9618 880.026 13.3369C883.46 15.4198 901.236 13.7535 910.917 15.6281C912.634 14.7949 915.579 14.1701 914.23 13.1286L911.164 13.3369C908.345 11.4623 916.928 10.8374 913.001 10.0043C917.17 8.75454 921.706 6.67167 927.47 7.71308L928.573 10.2126C928.447 9.37941 924.772 8.75454 923.176 9.37941C925.628 8.33795 932.006 12.9203 934.7 9.58769L930.657 7.9214C934.826 6.67166 939.85 3.96392 945 4.79706C942.669 2.29759 943.772 5.00534 940.217 2.08932C943.404 5.83852 927.103 1.881 932.127 5.83852C928.326 2.50587 925.628 4.38047 920.724 1.46445C920.85 2.29759 922.441 3.13073 918.152 2.71418C917.905 2.92246 917.537 3.33905 917.17 3.54733C917.049 3.54733 917.049 3.54733 916.928 3.54733C917.049 3.54733 917.049 3.54733 917.17 3.54733C916.928 3.7556 916.928 3.7556 917.296 3.54733C918.272 3.96392 919.133 4.38047 919.501 4.79706C917.417 6.67167 910.55 6.67167 908.224 7.71308C905.646 7.29653 909.326 6.67167 907.856 5.83852L904.423 7.29653C904.055 5.42193 897.682 4.17219 903.688 3.13073H898.291C895.104 2.08932 890.694 1.67272 887.996 2.50587C885.423 2.08932 881.501 4.58879 883.827 3.13073L875.249 4.17219L875.123 3.7556C866.791 3.54733 857.84 6.87994 848.279 3.54733C845.46 3.96392 842.52 4.58879 837.858 3.96392L836.877 2.29759C833.202 2.92246 825.967 0.631263 824.497 2.29759C820.575 -2.07647 806.967 1.25613 800.594 0.631263L800.347 2.71418C795.937 2.50587 791.769 3.13073 786.251 3.96392L786.618 5.83852C781.962 7.29653 774.606 4.58879 767.13 4.79706C767.619 4.17219 769.456 4.17219 770.805 4.79706C761.98 0.631263 752.052 7.9214 744.083 4.79706C742.119 5.42193 740.65 5.21366 739.18 4.79706C739.426 4.79706 739.547 4.79706 739.668 4.79706C739.426 4.79706 739.179 4.79706 738.812 4.79706C737.956 4.38047 736.974 4.17219 735.993 3.7556C736.848 4.17219 737.589 4.58879 738.324 4.79706C736.728 4.79706 734.397 5.00534 732.192 5.6302L731.21 3.54733C730.969 3.54733 730.843 3.54733 730.722 3.54733C728.517 2.71418 728.884 4.58879 730.108 6.0468C729.005 6.46339 727.903 6.67167 727.042 7.29653C725.204 3.96392 721.036 8.33795 718.463 5.00534C716.867 6.67166 706.939 6.25507 705.716 9.796C705.59 9.37941 704.981 9.17114 706.204 9.17114C703.632 8.75454 701.054 8.33795 698.728 9.37941L697.626 6.87994L691.987 10.2126C688.554 8.75454 687.205 7.71308 690.512 5.83852C682.422 8.96282 683.897 6.87994 677.03 10.0043L677.398 8.33795C674.946 8.33795 670.898 10.6291 669.428 9.17114C663.916 6.0468 641.971 8.75454 627.754 5.83852C630.573 10.6291 621.134 3.7556 620.519 7.50481C619.658 6.25507 617.7 5.6302 620.026 4.79706C612.797 5.83852 609.116 2.92246 604.092 6.0468C603.236 4.79706 605.688 4.38047 604.953 3.7556C604.339 3.96392 602.622 4.79706 601.887 3.96392C601.152 3.33905 602.99 2.92246 604.092 2.50587C596.616 2.71418 595.881 6.25507 595.388 9.58769C591.587 7.9214 589.749 8.33795 587.056 10.4209C585.707 9.37941 583.622 8.12968 588.158 7.71308C585.581 7.50481 572.345 6.0468 572.099 8.75454C571.238 8.12968 568.418 8.54627 567.809 8.96282C562.045 8.75454 561.436 8.54627 555.792 8.75454L557.388 9.17114C555.183 12.2955 552.605 9.796 548.069 10.2126L548.195 9.796C537.653 7.50481 543.659 10.8374 533.238 8.33795L533.853 10.4209C532.871 14.7949 524.66 7.9214 518.529 9.58769L520.738 10.6291C517.426 12.0872 511.542 4.79706 508.232 4.17219C507.496 3.7556 509.335 3.54733 510.439 3.33905C501.735 0.839581 509.335 6.0468 502.838 6.46335C501.612 5.00534 504.432 2.92246 500.019 2.50587C497.812 1.46445 487.393 7.08821 481.386 4.38047C482.734 5.42193 483.96 6.46335 481.018 7.29653C476.36 7.71308 468.515 3.13073 464.347 6.67167C463.734 6.46335 463.489 6.0468 463.489 5.83852C459.934 6.67167 452.089 7.29653 449.882 9.17114C446.573 2.29759 427.94 12.5037 428.062 6.25507L417.275 6.67167L417.52 6.0468C410.655 5.6302 408.203 7.08821 405.752 8.75454C404.158 8.33795 405.262 7.71308 405.507 7.29653C395.333 6.0468 394.352 6.25507 385.894 9.37941L385.035 7.29653C382.706 8.54627 370.448 3.96392 360.519 6.46335C360.641 6.25507 360.764 5.83852 361.622 5.6302C350.467 8.12967 334.898 0.00641209 330.853 7.50481L323.499 9.37941C333.06 10.0043 322.028 12.712 325.95 13.9618C322.15 14.3784 316.266 11.6706 320.924 11.254L321.66 11.6706C323.376 7.71308 309.769 10.2126 310.014 7.71308C291.259 7.9214 272.994 5.83852 255.465 5.6302L257.548 8.75454L251.419 8.54627C249.826 7.9214 249.213 6.25507 253.625 6.25507C251.297 4.58879 246.271 7.71308 246.148 8.33795C237.567 7.08821 249.458 4.79706 246.883 4.79706L243.329 5.00534L244.187 5.42193C241.245 6.67167 241 7.9214 235.728 7.9214C232.419 7.29653 234.012 6.0468 232.664 5.83852C232.664 5.6302 232.173 5.42193 230.702 5.83852L222.98 5.6302L226.044 8.12968C222.612 9.37941 218.812 7.9214 222.367 10.6291C217.096 6.46335 193.56 9.17114 190.373 7.9214C185.592 9.58769 180.811 9.58769 175.049 9.37941C176.52 9.796 177.379 12.5037 172.353 12.2955C174.192 6.67166 163.159 9.796 158.991 5.83852C162.668 8.54627 144.649 6.46339 150.41 10.2126C146.242 9.796 150.165 8.12968 146.978 6.87994C136.926 8.96282 124.913 5.42193 112.409 6.25507C112.164 7.08821 114.248 8.12968 111.674 9.17114L105.177 5.42193C102.725 5.83852 102.97 9.58768 98.4348 7.08821C99.0475 7.71308 100.028 8.54627 98.3119 8.96282C73.6727 4.58879 48.2979 11.0457 23.6586 4.38047C26.9684 5.83852 24.7619 5.83852 22.1877 6.0468C23.9038 6.46339 22.1877 7.9214 22.4328 8.75454L12.1358 6.0468C10.297 8.75454 1.10323 6.25507 0 8.96282L3.18716 8.33795C-1.22584 11.4623 9.31637 15.2115 8.58084 19.169C13.4842 15.6281 21.4521 24.3762 29.4201 19.3773C31.1363 20.2104 27.9491 20.627 28.8072 21.6684C30.8911 20.0022 33.2202 19.5856 37.7558 20.4187L37.5106 20.8353C50.2593 20.4187 55.7755 22.085 69.9951 23.1265L68.8921 21.2519C71.9565 21.4602 72.5697 22.085 74.0407 22.7099C77.5955 19.7938 65.4596 22.5016 68.6469 19.169C72.692 23.1265 90.344 19.169 93.041 23.7513C97.8216 23.7513 91.6928 21.4602 96.3506 21.4602L97.5764 22.7099L98.8023 21.0436C101.867 21.2519 103.461 22.9182 103.583 23.9596C102.848 23.7513 101.499 24.1679 100.641 24.3762C104.686 25.8342 112.042 23.9596 113.39 24.3762L108.977 23.543C121.848 22.2933 137.662 23.9596 150.165 21.4602L149.184 20.627C158.746 18.9607 156.785 21.6684 167.327 20.8353L166.959 21.0436C169.043 20.2104 171.862 19.5856 174.682 19.7938C171.985 20.8353 179.708 21.8768 176.153 23.1265C186.45 21.2519 181.301 21.6684 188.043 18.1276L189.637 19.5856C191.966 18.1276 192.211 17.5027 197.36 17.0861C193.07 18.3358 200.669 19.3773 195.889 21.2519C206.799 24.5845 212.193 17.9192 217.218 22.7099C222.244 18.3358 207.779 20.4187 210.599 19.3773C208.27 17.9192 214.767 16.253 218.199 16.6695C221.754 16.6695 224.206 22.085 232.909 22.085C232.051 22.085 231.928 22.2933 231.07 22.2933C234.38 23.3348 237.567 20.8353 241.612 22.5016C243.819 20.0022 246.883 22.7099 247.497 19.3773L239.406 20.2104C243.941 19.3773 248.232 15.4198 255.832 17.2944C255.219 17.9192 253.013 18.7524 251.419 19.3773C253.625 20.4187 255.71 18.7524 257.916 19.7938C257.303 23.1265 248.109 20.4187 243.206 23.1265C245.535 24.5845 252.522 20.8353 250.071 24.3762C253.625 19.7938 258.774 25.0011 264.658 21.4602L264.29 23.3348C265.271 23.1265 267.232 22.085 268.949 22.085L265.761 24.5845C270.542 22.5016 275.078 26.4591 279.736 25.2094C270.052 25.2094 277.53 22.9182 273.484 21.4602C285.498 18.7524 280.349 26.6674 293.711 25.6259C291.872 25.8342 286.846 24.3762 289.788 23.543C292.362 23.9596 295.672 24.7928 297.265 25.8342C306.092 25.4177 295.917 23.7513 299.717 22.5016C302.782 25.0011 304.13 21.4602 307.93 20.8353V22.9182C317.982 24.1679 310.627 18.7524 319.698 20.2104L315.898 22.9182L320.679 22.2933L319.698 24.5845C324.847 22.9182 326.44 23.3348 331.589 23.9596C330.363 22.5016 332.202 20.2104 336.738 20.2104C339.802 21.4602 335.021 22.085 341.396 21.8768C339.925 23.1265 338.331 24.7928 335.634 22.9182C335.389 23.543 334.163 24.1679 333.918 24.7928C337.228 26.2508 342.131 25.0011 344.46 25.0011C343.602 25.0011 342.499 24.7928 342.009 24.5845L351.202 21.8768C352.673 22.7099 351.447 23.3348 350.344 23.7513C352.183 23.5431 353.531 22.7099 356.228 22.5016C355.493 24.1679 355.738 25.8342 351.815 26.6674L360.641 24.7928C361.254 25.4177 365.177 26.6674 363.951 27.2923C368.854 28.3337 375.842 24.1679 382.338 25.4177C382.706 25.0011 383.319 24.7928 384.668 24.5845C390.674 25.0011 396.068 26.8757 403.301 24.7928L407.346 27.7088C412.985 27.084 401.829 23.9596 411.146 22.9182C417.765 22.085 413.597 25.4177 415.926 26.2508C419.236 24.7928 424.998 21.6684 431.004 24.1679C429.043 24.5845 427.449 24.1679 425.61 24.3762ZM494.87 23.1265C493.522 23.543 490.825 24.7928 489.844 23.7513C491.438 21.2519 492.664 22.5016 494.87 23.1265ZM600.291 18.3358C599.309 18.9607 597.719 18.7524 596.002 17.9192C597.351 17.711 598.7 17.711 600.291 18.3358ZM894.002 4.38047H893.881C890.941 3.54733 891.917 3.96392 894.002 4.38047ZM900.254 5.21365C900.869 5.00534 900.869 4.58879 900.622 4.38047C900.134 4.79706 898.784 5.00534 897.188 4.79706C897.556 5.21366 898.417 5.6302 900.254 5.21365ZM231.806 6.0468L233.031 6.67167C230.335 7.08822 231.07 6.46339 231.806 6.0468Z" fill="#FCA303FF"/>

              </svg>
                